<?xml version="1.0" encoding="UTF-8"?>
<svg xmlns="http://www.w3.org/2000/svg" xmlns:xlink="http://www.w3.org/1999/xlink" width="24pt" height="24pt" viewBox="0 0 24 24" version="1.1">
<g id="surface3">
<path style=" stroke:none;fill-rule:nonzero;fill:rgb(70.196078%,70.196078%,70.196078%);fill-opacity:1;" d="M 11.992188 0 L 0 3.984375 L 1.894531 18.8125 L 12.003906 24.054688 L 22.167969 18.738281 L 24.0625 3.914062 Z M 11.992188 0 "/>
<path style=" stroke:none;fill-rule:nonzero;fill:rgb(68.627451%,16.862745%,17.647059%);fill-opacity:1;" d="M 22.867188 4.769531 L 11.964844 1.261719 L 11.964844 22.800781 L 21.101562 18.03125 Z M 22.867188 4.769531 "/>
<path style=" stroke:none;fill-rule:nonzero;fill:rgb(87.45098%,18.039216%,19.215686%);fill-opacity:1;" d="M 1.347656 4.832031 L 2.96875 18.09375 L 11.964844 22.800781 L 11.964844 1.261719 Z M 1.347656 4.832031 "/>
<path style=" stroke:none;fill-rule:nonzero;fill:rgb(94.901961%,94.901961%,94.901961%);fill-opacity:1;" d="M 14.492188 11.976562 L 11.984375 7.035156 L 9.777344 11.976562 Z M 15.449219 14.050781 L 8.800781 14.050781 L 7.316406 17.5625 L 4.550781 17.609375 L 11.964844 2.042969 L 19.640625 17.609375 L 17.074219 17.609375 Z M 15.449219 14.050781 "/>
<path style=" stroke:none;fill-rule:nonzero;fill:rgb(70.196078%,70.196078%,70.196078%);fill-opacity:1;" d="M 11.964844 2.042969 L 11.984375 7.035156 L 14.488281 11.980469 L 11.972656 11.980469 L 11.964844 14.050781 L 15.449219 14.050781 L 17.074219 17.609375 L 19.722656 17.65625 Z M 11.964844 2.042969 "/>
</g>
</svg>
